<svg width="480" height="60" viewBox="0 0 480 60" fill="none" xmlns="http://www.w3.org/2000/svg">
  <svg x="0" y="0" width="60" height="60" viewBox="0 0 60 60">
  <circle cx="30" cy="30" r="28" stroke="rgba(26,45,90,0.2)" stroke-width="1.5"/>
  <circle cx="30" cy="30" r="22" fill="rgba(26,45,90,0.04)"/>
  <rect x="29.1" y="14" width="1.8" height="32" rx="0.9" fill="#1a2d5a"/>
  <rect x="10" y="19" width="40" height="2.2" rx="1.1" fill="#1a2d5a"/>
  <circle cx="30" cy="12.5" r="2.2" fill="#1a2d5a"/>
  <circle cx="30" cy="12.5" r="1" fill="#f5f6f8"/>
  <line x1="16" y1="21.2" x2="16" y2="31" stroke="rgba(26,45,90,0.5)" stroke-width="1.2" stroke-dasharray="2.2 2"/>
  <line x1="44" y1="21.2" x2="44" y2="31" stroke="rgba(26,45,90,0.5)" stroke-width="1.2" stroke-dasharray="2.2 2"/>
  <path d="M8 33 Q16 39.5 24 33" stroke="#1a2d5a" stroke-width="1.8" stroke-linecap="round" fill="none"/>
  <line x1="8" y1="33" x2="24" y2="33" stroke="#1a2d5a" stroke-width="1.8" stroke-linecap="round"/>
  <path d="M8 33 Q16 39.5 24 33 Z" fill="rgba(26,45,90,0.08)"/>
  <path d="M36 33 Q44 39.5 52 33" stroke="#1a2d5a" stroke-width="1.8" stroke-linecap="round" fill="none"/>
  <line x1="36" y1="33" x2="52" y2="33" stroke="#1a2d5a" stroke-width="1.8" stroke-linecap="round"/>
  <path d="M36 33 Q44 39.5 52 33 Z" fill="rgba(26,45,90,0.08)"/>
  <rect x="28.5" y="46" width="3" height="5" rx="1" fill="#1a2d5a"/>
  <rect x="22" y="50.5" width="16" height="2.5" rx="1.25" fill="#1a2d5a"/>
  <rect x="19" y="53" width="22" height="2" rx="1" fill="rgba(26,45,90,0.5)"/>
</svg>
  <text x="72" y="39"
    font-family="Georgia, 'Times New Roman', serif"
    font-weight="700"
    font-size="28"
    letter-spacing="2.5"
    fill="#1a2d5a">Class Action Law Updates</text>
</svg>