<svg width="220" height="40" viewBox="0 0 220 40" fill="none" xmlns="http://www.w3.org/2000/svg">

  <!-- ── Scales of Justice Icon ── -->
  <!-- Vertical center pillar -->
  <rect x="19.2" y="8" width="1.6" height="24" rx="0.8" fill="white"/>
  <!-- Horizontal beam -->
  <rect x="5" y="11" width="30" height="2" rx="1" fill="white"/>
  <!-- Top finial -->
  <polygon points="20,4 21.5,7 18.5,7" fill="white"/>
  <!-- Left chain -->
  <circle cx="10" cy="14.5" r="0.7" fill="white" opacity="0.85"/>
  <circle cx="10" cy="17"   r="0.7" fill="white" opacity="0.85"/>
  <circle cx="10" cy="19.5" r="0.7" fill="white" opacity="0.85"/>
  <!-- Right chain -->
  <circle cx="30" cy="14.5" r="0.7" fill="white" opacity="0.85"/>
  <circle cx="30" cy="17"   r="0.7" fill="white" opacity="0.85"/>
  <circle cx="30" cy="19.5" r="0.7" fill="white" opacity="0.85"/>
  <!-- Left pan -->
  <path d="M5.5 21.5 C5.5 21.5 7 25.5 10 25.5 C13 25.5 14.5 21.5 14.5 21.5 Z" fill="white" opacity="0.5"/>
  <path d="M5.5 21.5 Q10 24.5 14.5 21.5" stroke="white" stroke-width="1.5" stroke-linecap="round" fill="none"/>
  <line x1="5.5" y1="21.5" x2="14.5" y2="21.5" stroke="white" stroke-width="1.5" stroke-linecap="round"/>
  <!-- Right pan -->
  <path d="M25.5 21.5 C25.5 21.5 27 25.5 30 25.5 C33 25.5 34.5 21.5 34.5 21.5 Z" fill="white" opacity="0.5"/>
  <path d="M25.5 21.5 Q30 24.5 34.5 21.5" stroke="white" stroke-width="1.5" stroke-linecap="round" fill="none"/>
  <line x1="25.5" y1="21.5" x2="34.5" y2="21.5" stroke="white" stroke-width="1.5" stroke-linecap="round"/>
  <!-- Base platform -->
  <rect x="15" y="32" width="10" height="1.8" rx="0.9" fill="white"/>
  <rect x="13" y="33.8" width="14" height="2" rx="1" fill="white" opacity="0.8"/>

  <!-- ── Wordmark ── -->
  <text x="46" y="23"
    font-family="Georgia, 'Times New Roman', serif"
    font-weight="700"
    font-size="15"
    letter-spacing="-0.2"
    fill="white">ClassActionLaw</text>

  <text x="47" y="34"
    font-family="'Courier New', Courier, monospace"
    font-weight="500"
    font-size="9.5"
    letter-spacing="0.6"
    fill="#a5b4d4">Updates.com</text>

</svg>